<svg width="81" height="34" viewBox="0 0 81 34" fill="none" xmlns="http://www.w3.org/2000/svg">
<rect x="1" y="1" width="79" height="32" rx="16" fill="url(#paint0_linear_75_3)"/>
<rect x="1" y="1" width="79" height="32" rx="16" stroke="#FFB3B6"/>
<path d="M23.334 17.8115C23.2792 17.8937 23.25 17.9902 23.25 18.0889V21.3785C23.25 21.5679 23.143 21.741 22.9736 21.8257L21.4736 22.5757C21.1412 22.7419 20.75 22.5002 20.75 22.1285V18.0889C20.75 17.9902 20.7208 17.8937 20.666 17.8115L17.084 12.4385C17.0292 12.3563 17 12.2598 17 12.1611V11.5625C17 11.2864 17.2239 11.0625 17.5 11.0625H26.5C26.7761 11.0625 27 11.2864 27 11.5625V12.1611C27 12.2598 26.9708 12.3563 26.916 12.4385L23.334 17.8115ZM19.4368 12.3125C19.0374 12.3125 18.7992 12.7576 19.0207 13.0899L21.584 16.9347C21.7819 17.2316 22.2181 17.2316 22.416 16.9347L24.9793 13.0899C25.2008 12.7576 24.9626 12.3125 24.5632 12.3125H19.4368Z" fill="white"/>
<path d="M36.596 21.06C36.412 21.06 36.264 21.004 36.152 20.892C36.04 20.772 35.984 20.62 35.984 20.436V13.14C35.984 12.956 36.036 12.812 36.14 12.708C36.252 12.596 36.404 12.54 36.596 12.54H40.892C41.276 12.54 41.468 12.708 41.468 13.044C41.468 13.38 41.276 13.548 40.892 13.548H37.208V16.2H40.652C41.036 16.2 41.228 16.368 41.228 16.704C41.228 17.04 41.036 17.208 40.652 17.208H37.208V20.436C37.208 20.628 37.152 20.78 37.04 20.892C36.936 21.004 36.788 21.06 36.596 21.06ZM43.659 21.06C43.483 21.06 43.335 21.012 43.215 20.916C43.103 20.82 43.047 20.676 43.047 20.484V15.612C43.047 15.42 43.103 15.276 43.215 15.18C43.335 15.076 43.483 15.024 43.659 15.024C43.835 15.024 43.979 15.076 44.091 15.18C44.203 15.276 44.259 15.42 44.259 15.612V20.484C44.259 20.676 44.203 20.82 44.091 20.916C43.979 21.012 43.835 21.06 43.659 21.06ZM43.659 13.848C43.427 13.848 43.243 13.784 43.107 13.656C42.971 13.528 42.903 13.36 42.903 13.152C42.903 12.944 42.971 12.78 43.107 12.66C43.243 12.532 43.427 12.468 43.659 12.468C43.883 12.468 44.063 12.532 44.199 12.66C44.343 12.78 44.415 12.944 44.415 13.152C44.415 13.36 44.347 13.528 44.211 13.656C44.075 13.784 43.891 13.848 43.659 13.848ZM46.5653 21.06C46.3893 21.06 46.2413 21.012 46.1213 20.916C46.0093 20.82 45.9533 20.676 45.9533 20.484V13.068C45.9533 12.876 46.0093 12.732 46.1213 12.636C46.2413 12.532 46.3893 12.48 46.5653 12.48C46.7413 12.48 46.8853 12.532 46.9973 12.636C47.1093 12.732 47.1653 12.876 47.1653 13.068V20.484C47.1653 20.676 47.1093 20.82 46.9973 20.916C46.8853 21.012 46.7413 21.06 46.5653 21.06ZM51.8916 20.136C52.0676 20.152 52.1916 20.2 52.2636 20.28C52.3436 20.352 52.3836 20.456 52.3836 20.592C52.3836 20.752 52.3196 20.876 52.1916 20.964C52.0716 21.044 51.8916 21.076 51.6516 21.06L51.3276 21.036C50.6796 20.988 50.1956 20.792 49.8756 20.448C49.5556 20.096 49.3956 19.58 49.3956 18.9V16.08H48.6756C48.3236 16.08 48.1476 15.924 48.1476 15.612C48.1476 15.468 48.1916 15.356 48.2796 15.276C48.3756 15.188 48.5076 15.144 48.6756 15.144H49.3956V13.908C49.3956 13.724 49.4476 13.58 49.5516 13.476C49.6636 13.372 49.8116 13.32 49.9956 13.32C50.1796 13.32 50.3276 13.372 50.4396 13.476C50.5516 13.58 50.6076 13.724 50.6076 13.908V15.144H51.7956C51.9636 15.144 52.0916 15.188 52.1796 15.276C52.2756 15.356 52.3236 15.468 52.3236 15.612C52.3236 15.764 52.2756 15.88 52.1796 15.96C52.0916 16.04 51.9636 16.08 51.7956 16.08H50.6076V18.984C50.6076 19.36 50.6836 19.636 50.8356 19.812C50.9956 19.988 51.2356 20.088 51.5556 20.112L51.8916 20.136ZM57.8381 19.524C57.9501 19.524 58.0421 19.568 58.1141 19.656C58.1861 19.744 58.2221 19.856 58.2221 19.992C58.2221 20.224 58.0781 20.42 57.7901 20.58C57.5101 20.74 57.2021 20.864 56.8661 20.952C56.5381 21.04 56.2221 21.084 55.9181 21.084C54.9901 21.084 54.2581 20.816 53.7221 20.28C53.1861 19.736 52.9181 18.996 52.9181 18.06C52.9181 17.46 53.0341 16.928 53.2661 16.464C53.5061 16 53.8381 15.64 54.2621 15.384C54.6941 15.128 55.1821 15 55.7261 15C56.5101 15 57.1301 15.252 57.5861 15.756C58.0421 16.26 58.2701 16.94 58.2701 17.796C58.2701 18.116 58.1261 18.276 57.8381 18.276H54.1301C54.2101 19.516 54.8061 20.136 55.9181 20.136C56.2141 20.136 56.4701 20.096 56.6861 20.016C56.9021 19.936 57.1301 19.832 57.3701 19.704C57.3941 19.688 57.4581 19.656 57.5621 19.608C57.6741 19.552 57.7661 19.524 57.8381 19.524ZM55.7501 15.888C55.2861 15.888 54.9141 16.036 54.6341 16.332C54.3541 16.628 54.1861 17.044 54.1301 17.58H57.2261C57.2021 17.036 57.0621 16.62 56.8061 16.332C56.5581 16.036 56.2061 15.888 55.7501 15.888ZM62.6776 15.024C63.0616 15 63.2536 15.164 63.2536 15.516C63.2536 15.692 63.2096 15.824 63.1216 15.912C63.0336 16 62.8816 16.052 62.6656 16.068L62.3056 16.104C61.8016 16.152 61.4256 16.328 61.1776 16.632C60.9376 16.936 60.8176 17.304 60.8176 17.736V20.484C60.8176 20.676 60.7616 20.82 60.6496 20.916C60.5376 21.012 60.3936 21.06 60.2176 21.06C60.0416 21.06 59.8936 21.012 59.7736 20.916C59.6616 20.82 59.6056 20.676 59.6056 20.484V15.6C59.6056 15.416 59.6616 15.276 59.7736 15.18C59.8936 15.076 60.0416 15.024 60.2176 15.024C60.3776 15.024 60.5096 15.076 60.6136 15.18C60.7256 15.276 60.7816 15.412 60.7816 15.588V16.164C60.9416 15.812 61.1736 15.544 61.4776 15.36C61.7816 15.176 62.1256 15.068 62.5096 15.036L62.6776 15.024Z" fill="white"/>
<defs>
<linearGradient id="paint0_linear_75_3" x1="1" y1="1" x2="54.5073" y2="76.2011" gradientUnits="userSpaceOnUse">
<stop stop-color="#FF3A44"/>
<stop offset="1" stop-color="#FF8086"/>
</linearGradient>
</defs>
</svg>
